<?xml version="1.0" encoding="UTF-8"?>
<svg width="163px" height="37px" viewBox="0 0 163 37" version="1.1" xmlns="http://www.w3.org/2000/svg" xmlns:xlink="http://www.w3.org/1999/xlink">
    <defs>
        <filter x="-8.1%" y="-75.2%" width="116.1%" height="250.3%" filterUnits="objectBoundingBox" id="filter-1">
            <feOffset dx="0" dy="20" in="SourceAlpha" result="shadowOffsetOuter1"></feOffset>
            <feGaussianBlur stdDeviation="20" in="shadowOffsetOuter1" result="shadowBlurOuter1"></feGaussianBlur>
            <feColorMatrix values="0 0 0 0 0   0 0 0 0 0   0 0 0 0 0  0 0 0 0.03 0" type="matrix" in="shadowBlurOuter1" result="shadowMatrixOuter1"></feColorMatrix>
            <feMerge>
                <feMergeNode in="shadowMatrixOuter1"></feMergeNode>
                <feMergeNode in="SourceGraphic"></feMergeNode>
            </feMerge>
        </filter>
    </defs>
    <g id="Home" stroke="none" stroke-width="1" fill="none" fill-rule="evenodd">
        <g id="News" transform="translate(-61.000000, -58.000000)">
            <rect fill="#F8F8F8" x="0" y="0" width="1425" height="1792"></rect>
            <g id="Group-41" filter="url(#filter-1)">
                <rect id="Rectangle-2" x="0" y="0" width="1425" height="153"></rect>
                <path d="M128.495174,76.5799596 C128.34166,77.7413754 128.146414,78.7276809 127.863232,79.6032328 C127.034553,82.2104318 125.529219,84.159096 123.238428,85.6931827 C122.976113,85.845843 122.824089,85.9341465 122.715287,85.9341465 C122.561773,85.9341465 122.452972,85.8248896 122.233878,85.5180723 C121.864252,84.9927412 121.361977,84.5542169 120.947637,84.290803 C123.369586,82.9991768 124.961365,81.2899798 125.703599,78.9461947 C126.292319,77.1501908 126.509922,74.9815161 126.553144,71.848986 C124.895786,71.848986 124.219131,71.8923894 124.11033,71.8923894 C123.892727,71.8923894 123.87037,71.8714361 123.87037,71.6514256 L123.87037,69.9646786 C123.87037,69.7461648 123.892727,69.7237147 124.11033,69.7237147 C124.241487,69.7237147 124.961365,69.7671182 126.81546,69.7671182 L128.364016,69.7671182 L128.364016,68.321335 C128.364016,67.3799297 128.34166,66.8096984 128.211993,66 C129.040672,66.0209534 129.738193,66.0868069 130.45807,66.1751104 C130.677164,66.1975604 130.806831,66.2843673 130.806831,66.3936242 C130.806831,66.5702312 130.742743,66.7004415 130.677164,66.8531018 C130.568362,67.0955624 130.568362,67.4457831 130.568362,68.321335 L130.568362,69.7671182 L132.836797,69.7671182 C134.908494,69.7671182 135.628372,69.7237147 135.75953,69.7237147 C135.978623,69.7237147 135.999489,69.7461648 135.999489,69.9646786 L135.999489,71.6514256 C135.999489,71.8714361 135.978623,71.8923894 135.75953,71.8923894 C135.628372,71.8923894 134.908494,71.848986 132.836797,71.848986 L128.800712,71.848986 C128.778356,72.8352915 128.75749,73.7108434 128.691911,74.5429918 L132.203364,74.5429918 C133.708698,74.5429918 134.123038,74.4995884 134.254195,74.4995884 C134.494155,74.4995884 134.559733,74.5654419 134.559733,74.7839557 C134.516511,75.3317369 134.494155,75.9004715 134.494155,76.4258026 C134.428576,79.8876001 134.233329,81.706054 134.014236,82.9333234 C133.622253,84.9927412 132.771218,85.6931827 130.589228,85.6931827 C130.240468,85.6931827 129.803772,85.6931827 129.432655,85.6707326 C128.909514,85.6273292 128.909514,85.6273292 128.800712,84.9268877 C128.712777,84.2698496 128.538397,83.7654718 128.320794,83.392801 C129.302987,83.5020579 129.914064,83.546958 130.480427,83.546958 C131.222661,83.546958 131.571422,83.1742872 131.745802,82.3855422 C132.006627,81.3333832 132.203364,79.5598294 132.248077,76.5799596 L128.495174,76.5799596 Z M122.299457,66.8096984 C122.518551,66.8096984 122.649708,66.788745 122.736153,66.7453416 C122.824089,66.7004415 122.888177,66.6794881 122.976113,66.6794881 C123.172849,66.6794881 123.324873,66.788745 123.827148,67.3365262 C124.307066,67.8184539 124.395002,68.0145177 124.395002,68.1911247 C124.395002,68.321335 124.307066,68.453042 124.175909,68.5637956 C124.001528,68.7164559 123.87037,68.9574197 123.761569,69.2851905 C123.129627,70.8626805 122.692931,72.1333533 121.929831,73.6015865 C123.543966,75.5517474 123.827148,76.8643269 123.827148,78.0915962 C123.827148,80.1285639 122.955246,81.3124298 120.838836,81.4650902 C120.141315,81.5309437 120.141315,81.5309437 120.05338,80.8514555 C119.965444,80.2168675 119.81342,79.6690863 119.573461,79.384719 C120.925281,79.4490758 121.710738,79.1437551 121.710738,77.8072289 C121.710738,76.7984734 121.208463,75.7478111 119.659906,73.7766968 C120.554164,72.0899499 121.078795,70.6217167 121.645159,68.8257128 L119.202344,68.8257128 L119.202344,81.1358228 C119.202344,84.0947392 119.245567,85.6497792 119.245567,85.7799895 C119.245567,85.97755 119.224701,86 118.984741,86 L117.239448,86 C117.020355,86 116.999489,85.97755 116.999489,85.7799895 C116.999489,85.6273292 117.042711,84.159096 117.042711,81.1358228 L117.042711,71.694829 C117.042711,68.6506024 116.999489,67.1614158 116.999489,67.0297089 C116.999489,66.788745 117.020355,66.766295 117.239448,66.766295 C117.391472,66.766295 117.959326,66.8096984 119.093543,66.8096984 L122.299457,66.8096984 Z M152.558283,76.8040918 C152.767248,76.4684433 152.934705,76.2159897 153.082125,75.7756304 C153.730487,76.0266496 154.38028,76.3207006 154.841146,76.5946701 C155.177492,76.7825759 155.239037,76.8456893 155.239037,76.9719161 C155.239037,77.1182244 155.134555,77.2229352 154.988566,77.3075645 C154.841146,77.3921939 154.736664,77.5184207 154.589244,77.7063264 C154.023896,78.4837687 153.271052,79.3444059 152.516777,80.0587347 C152.286344,80.2681564 152.160393,80.3929488 152.034442,80.3929488 C151.908491,80.3929488 151.78254,80.2681564 151.5106,80.0587347 C151.092671,79.7216518 150.651843,79.4491167 150.253952,79.2812925 C151.132747,78.5253661 152.034442,77.5600181 152.558283,76.8040918 Z M154.003858,75.1459308 C153.794894,75.2922392 153.730487,75.2721576 153.605967,75.0828175 C152.684234,73.7172731 151.65802,72.6256983 150.399941,71.492526 C150.232483,71.3247018 150.148039,71.2185565 150.148039,71.1138457 C150.148039,70.9890533 150.232483,70.8843424 150.399941,70.7150838 C151.197154,69.8974785 151.971466,69.0354069 152.59979,68.1116563 C152.788717,67.8176053 153.01915,67.4202778 153.208076,67 C153.899376,67.2309376 154.5277,67.4819568 155.114517,67.7774422 C155.280543,67.8606372 155.364988,67.9438321 155.364988,68.0700589 C155.364988,68.1962857 155.280543,68.280915 155.134555,68.3641099 C154.967097,68.4688208 154.862615,68.6165635 154.610713,68.9306961 C153.982389,69.6651064 153.417041,70.2747244 152.684234,70.9890533 C153.667511,71.7865771 154.736664,72.773441 155.510976,73.7387891 C155.658396,73.9281292 155.636928,73.9482108 155.364988,74.137551 L154.003858,75.1459308 Z M148.264498,74.9781066 C148.054103,75.1244149 147.991127,75.102899 147.865176,74.9149932 C147.006419,73.6756757 145.960167,72.5209875 144.786532,71.4294127 C144.619074,71.2816699 144.53463,71.1769591 144.53463,71.0937642 C144.53463,70.9890533 144.619074,70.8843424 144.786532,70.7150838 C145.540807,69.9605919 146.356626,69.0569228 146.921975,68.2178016 C147.173877,67.8391212 147.384272,67.5034727 147.573199,67.061679 C148.201523,67.2725351 148.891391,67.5249887 149.479639,67.8391212 C149.667135,67.9237506 149.73011,68.0069455 149.73011,68.1331723 C149.73011,68.280915 149.645666,68.3440284 149.519715,68.4272233 C149.353688,68.5319342 149.227737,68.658161 148.975835,68.9737279 C148.431956,69.6450249 147.782163,70.3163219 147.090863,70.9890533 C148.012596,71.7449796 148.954366,72.6056168 149.73011,73.5709648 C149.876099,73.7387891 149.876099,73.7387891 149.604159,73.9482108 L148.264498,74.9781066 Z M139.737041,80.0157029 C139.465101,79.8894761 139.465101,79.7847652 139.612521,79.6384569 C140.512784,78.6716745 141.330035,77.3921939 141.810939,76.1528763 C141.895383,75.9434546 141.958359,75.9434546 142.251767,76.0481655 L143.612897,76.5315567 C143.864799,76.6147516 143.884837,76.677865 143.801824,76.8887211 C143.215007,78.2729126 142.440694,79.5753435 141.538999,80.6454024 C141.455986,80.7501132 141.413048,80.7931451 141.330035,80.7931451 C141.267059,80.7931451 141.182615,80.7501132 141.036626,80.6884342 L139.737041,80.0157029 Z M142.712634,75.1875283 C142.523707,75.3123207 142.440694,75.2922392 142.334781,75.102899 C141.518961,73.8434999 140.365364,72.5625849 139.110148,71.4078967 C138.941259,71.2400725 138.858246,71.1568775 138.858246,71.0722482 C138.858246,70.9890533 138.941259,70.8843424 139.110148,70.7150838 C140.051918,69.7913332 140.743218,68.9737279 141.267059,68.1962857 C141.518961,67.8391212 141.727926,67.5034727 141.895383,67.1047109 C142.545176,67.294051 143.299451,67.5665861 143.864799,67.8807187 C144.053726,67.986864 144.116702,68.0700589 144.116702,68.1962857 C144.116702,68.3225125 144.053726,68.4071418 143.906306,68.4903367 C143.738848,68.5950476 143.612897,68.6997584 143.340958,69.0153254 C142.75414,69.6866224 142.188792,70.3163219 141.476024,70.9890533 C142.460732,71.7865771 143.425402,72.7935226 144.241221,73.7803865 C144.367172,73.9482108 144.347135,73.9912426 144.073764,74.1791484 L142.712634,75.1875283 Z M156.223745,85.4319795 C156.076325,85.8737732 156.014781,86 155.805816,86 C155.699903,86 155.510976,85.9569681 155.343519,85.9153707 C153.060656,85.2856711 151.489131,84.4465499 150.170939,83.3750566 C149.143293,82.5359354 148.264498,81.485958 147.614705,80.1218481 C147.216815,81.1072777 146.671504,82.0310282 145.834216,82.9131813 C144.388641,84.425034 142.377718,85.390382 139.717003,85.9153707 C139.506607,85.9569681 139.33915,85.9784841 139.256137,85.9784841 C139.06721,85.9784841 138.984197,85.8737732 138.878283,85.5582063 C138.627813,84.8869093 138.312935,84.3834365 137.999489,83.9832402 C140.806193,83.6475917 143.02608,82.6822437 144.367172,81.3166994 C145.519338,80.1003322 146.001673,78.6515929 146.169131,77.2444512 C146.273613,76.5731542 146.252144,75.5862902 146.189169,75.0828175 C146.921975,75.1244149 147.614705,75.1875283 148.306005,75.3123207 C148.536438,75.3553526 148.64092,75.4385475 148.64092,75.5647743 C148.64092,75.7541144 148.536438,75.9219387 148.473462,76.0696814 C148.410487,76.2159897 148.389018,76.6362676 148.347511,77.055111 C148.849884,79.2181791 150.023519,80.5622075 151.197154,81.4644421 C152.536815,82.472822 154.506231,83.3334592 156.999489,83.815416 C156.664573,84.3404047 156.391202,84.9069908 156.223745,85.4319795 Z M164.077436,73.1333952 L173.150384,73.1333952 L173.150384,71.7985144 L164.077436,71.7985144 L164.077436,73.1333952 Z M164.077436,70.1416744 L173.150384,70.1416744 L173.150384,68.8508976 L164.077436,68.8508976 L164.077436,70.1416744 Z M168.94344,78.2112349 C167.157884,80.9221603 164.970214,82.7715877 161.995739,84.0638347 C161.71847,84.1917363 161.548624,84.2564222 161.420877,84.2564222 C161.229256,84.2564222 161.145059,84.1270504 160.975214,83.8050913 C160.699396,83.2890746 160.401804,82.8583256 160.104211,82.5569483 C162.950939,81.4808109 165.14006,80.1253482 166.562698,78.2112349 L164.417127,78.2112349 C163.440152,79.0933148 162.29188,79.803389 160.996989,80.4267255 C160.741495,80.5560972 160.593424,80.620783 160.465677,80.620783 C160.317607,80.620783 160.210183,80.4914113 159.998239,80.190034 C159.700646,79.7387032 159.38273,79.37264 158.999489,79.0492108 C161.590723,78.0377592 163.036588,77.1350975 164.33293,75.4341535 C164.481001,75.2415661 164.608748,75.0475085 164.692945,74.8534509 C162.908841,74.8534509 162.249782,74.8975549 162.122035,74.8975549 C161.91009,74.8975549 161.889767,74.8755029 161.889767,74.6608635 C161.889767,74.5094398 161.931866,73.9507892 161.931866,72.6159084 L161.931866,69.2801764 C161.931866,67.9467657 161.889767,67.386645 161.889767,67.2366914 C161.889767,67.022052 161.91009,67 162.122035,67 C162.271557,67 162.972714,67.0426339 165.034088,67.0426339 L172.173409,67.0426339 C174.233331,67.0426339 174.956264,67 175.104334,67 C175.31773,67 175.338054,67.022052 175.338054,67.2366914 C175.338054,67.3660631 175.295955,67.9467657 175.295955,69.2801764 L175.295955,72.6159084 C175.295955,73.9507892 175.338054,74.5314918 175.338054,74.6608635 C175.338054,74.8755029 175.31773,74.8975549 175.104334,74.8975549 C174.956264,74.8975549 174.233331,74.8534509 172.173409,74.8534509 L166.924164,74.8534509 C167.009813,74.9181368 167.051912,74.9828227 167.051912,75.0475085 C167.051912,75.1768802 166.967715,75.2841999 166.903841,75.3488858 C166.754319,75.4562055 166.670122,75.4988394 166.542375,75.7149489 C166.371078,75.9942742 166.180909,76.2530176 166.011063,76.4897091 L173.829767,76.4897091 C175.869365,76.4897091 176.612621,76.4456051 176.740368,76.4456051 C176.953764,76.4456051 177.016186,76.4897091 176.995863,76.7043485 C176.931989,77.3923708 176.910214,78.0171773 176.868115,78.6625658 C176.69827,80.7501548 176.506649,82.5569483 176.230832,83.7830393 C175.89114,85.2899257 174.786418,85.8706283 173.192483,85.8706283 C172.788918,85.8706283 172.341803,85.8706283 171.89614,85.8279944 C171.51435,85.7838904 171.450477,85.8059424 171.32273,85.182606 C171.194983,84.5357474 171.003362,83.9991489 170.749319,83.5683999 C171.662421,83.6757196 172.427452,83.7183535 173.150384,83.7183535 C173.681696,83.7183535 174.063486,83.5463479 174.211556,82.7936397 C174.445275,81.6101826 174.636896,80.3194058 174.721093,78.2112349 L173.170708,78.2112349 C171.832266,81.6101826 169.686696,84.1270504 166.626572,85.7633086 C166.350754,85.9132621 166.202684,86 166.074937,86 C165.905091,86 165.797667,85.8485763 165.5654,85.5266171 C165.246032,85.0752863 164.906341,84.729805 164.544875,84.4725317 C167.986788,82.7936397 169.878316,80.8148406 170.983038,78.2112349 L168.94344,78.2112349 Z M193.136715,69.2225589 C191.537176,69.2225589 191.052423,69.2642982 190.925841,69.2642982 C190.715829,69.2642982 190.694253,69.2441482 190.694253,69.0325733 L190.694253,67.515567 C190.694253,67.3054314 190.715829,67.2838421 190.925841,67.2838421 C191.052423,67.2838421 191.537176,67.3270207 193.136715,67.3270207 L196.189074,67.3270207 C197.473597,67.3270207 198.000064,67.2838421 198.126646,67.2838421 C198.358234,67.2838421 198.379811,67.3054314 198.379811,67.515567 C198.379811,67.6422241 198.336658,68.2539202 198.336658,69.5809408 L198.336658,72.4033785 C198.336658,73.7303992 198.379811,74.3420953 198.379811,74.4673131 C198.379811,74.6572987 198.358234,74.678888 198.126646,74.678888 C198.000064,74.678888 197.473597,74.6357094 196.189074,74.6357094 L193.115139,74.6357094 L193.115139,78.4699644 C193.115139,78.9118249 193.115139,79.144989 193.263298,79.2917961 C193.515024,79.503371 193.999776,79.5652602 195.052711,79.5652602 C196.000639,79.5652602 196.568821,79.503371 196.905415,79.1867283 C197.178718,78.9118249 197.3053,78.3433073 197.347015,76.9745474 C197.768476,77.2062723 198.273367,77.4379971 198.758119,77.5646542 C199.40973,77.7330505 199.40973,77.7330505 199.389592,78.4066359 C199.26301,79.7135066 198.926416,80.4302704 198.421526,80.8721309 C197.873482,81.3557306 197.031997,81.6090448 194.926129,81.6090448 C192.800122,81.6090448 191.937061,81.4190592 191.537176,81.0621165 C191.115714,80.7238846 191.00927,80.2820241 191.00927,79.3968639 L191.00927,74.9739414 C191.00927,73.7088099 190.967555,73.0769639 190.967555,72.9503068 C190.967555,72.7185819 190.989132,72.6984319 191.199143,72.6984319 C191.325726,72.6984319 191.87377,72.7401712 193.051848,72.7401712 L196.230789,72.7401712 L196.230789,69.2225589 L193.136715,69.2225589 Z M183.305012,74.6155594 C181.494023,74.6155594 180.86255,74.6572987 180.735967,74.6572987 C180.546094,74.6572987 180.525956,74.6357094 180.525956,74.4457238 L180.525956,72.8869783 C180.525956,72.6768427 180.546094,72.6566927 180.735967,72.6566927 C180.86255,72.6566927 181.494023,72.6984319 183.305012,72.6984319 L184.716117,72.6984319 L184.716117,70.6546474 L183.851618,70.6546474 C182.168649,70.6546474 181.599028,70.6963866 181.472446,70.6963866 C181.262435,70.6963866 181.240858,70.6762366 181.240858,70.4646618 L181.240858,68.9490948 C181.240858,68.7375199 181.262435,68.7159306 181.472446,68.7159306 C181.599028,68.7159306 182.168649,68.7591092 183.851618,68.7591092 L184.716117,68.7591092 C184.716117,67.3903492 184.694541,66.8203924 184.567958,66 C185.326013,66.02015 186.020778,66.0618893 186.673827,66.1468071 C186.883839,66.1885463 186.988844,66.2518749 186.988844,66.3785319 C186.988844,66.4835997 186.94713,66.5886675 186.883839,66.7369139 C186.820547,66.9470495 186.778833,67.3471707 186.778833,68.3373987 L186.778833,68.7591092 L187.09385,68.7591092 C188.799834,68.7591092 189.326301,68.7159306 189.451445,68.7159306 C189.684471,68.7159306 189.70461,68.7375199 189.70461,68.9490948 L189.70461,70.4646618 C189.70461,70.6762366 189.684471,70.6963866 189.451445,70.6963866 C189.326301,70.6963866 188.799834,70.6546474 187.09385,70.6546474 L186.778833,70.6546474 L186.778833,72.6984319 L187.368591,72.6984319 C189.179581,72.6984319 189.809615,72.6566927 189.936198,72.6566927 C190.146209,72.6566927 190.167786,72.6768427 190.167786,72.8869783 L190.167786,74.4457238 C190.167786,74.6357094 190.146209,74.6572987 189.936198,74.6572987 C189.809615,74.6572987 189.179581,74.6155594 187.368591,74.6155594 L186.903977,74.6155594 L186.903977,76.9529581 L188.166923,76.9529581 C189.11629,76.9529581 189.494598,76.9112188 189.62118,76.9112188 C189.831192,76.9112188 189.852768,76.9328081 189.852768,77.1429437 L189.852768,78.6815393 C189.852768,78.8700856 189.831192,78.8916749 189.62118,78.8916749 C189.494598,78.8916749 189.11629,78.8484963 188.166923,78.8484963 L186.903977,78.8484963 L186.903977,82.0523445 C188.146784,82.5575335 189.726186,82.7892584 191.937061,82.7892584 C194.779408,82.7892584 197.3053,82.641012 199.999489,82.3042194 C199.726186,82.6841906 199.516175,83.3779259 199.389592,83.9464435 C199.26301,84.6214681 199.26301,84.6214681 198.611399,84.6646466 C196.420662,84.8316037 194.504667,84.8747822 192.105358,84.8747822 C189.241433,84.8747822 187.200294,84.5164003 185.684184,83.6312401 C184.504667,82.9562154 183.726474,82.2408908 182.988557,81.018938 C182.693677,82.2826301 182.273654,83.5261723 181.830616,84.474661 C181.66232,84.8316037 181.557314,85 181.430732,85 C181.325726,85 181.22072,84.8531929 181.052423,84.5998788 C180.735967,84.1162791 180.42095,83.7794864 179.999489,83.4628437 C181.072561,81.630634 181.66232,79.2702068 181.725611,76.9529581 C181.747187,76.5326869 181.747187,76.0274979 181.705473,75.6057874 C182.252078,75.6475267 182.968419,75.7943338 183.473309,75.9008408 C183.726474,75.9641694 183.83148,76.0274979 183.83148,76.1527157 C183.83148,76.2577835 183.768188,76.3628513 183.726474,76.4693584 C183.641606,76.6377547 183.62003,76.9328081 183.578315,77.2897508 C183.5366,77.8381183 183.473309,78.4066359 183.388442,78.9751534 C183.809903,79.7135066 184.314794,80.3237634 184.926129,80.8505416 L184.926129,74.6155594 L183.305012,74.6155594 Z M217.692656,73.6337357 C218.532547,74.8332588 219.781352,75.967218 221.309631,76.8612725 C220.900717,77.2099538 220.556523,77.6689018 220.254986,78.1919237 C220.082889,78.5182536 219.996106,78.6493816 219.868136,78.6493816 C219.759289,78.6493816 219.631319,78.5629563 219.415095,78.3662643 C218.467827,77.5586351 217.58528,76.5990165 216.918956,75.6617494 C216.573292,76.3814633 216.186442,77.0579645 215.690744,77.7329757 C215.496584,77.9952317 215.389207,78.1040083 215.28183,78.1040083 C215.15239,78.1040083 215.045013,77.9520191 214.83026,77.6897631 C214.506659,77.2546565 214.18453,76.9491879 213.774145,76.6437193 C214.850853,75.4441961 215.367143,74.2655342 215.820184,72.9795858 C216.034938,72.3462971 216.142314,71.8024139 216.186442,71.2555506 C216.939549,71.4298912 217.455839,71.5833706 217.994193,71.8024139 C218.23101,71.8888392 218.382514,72.0199672 218.382514,72.1496051 C218.382514,72.3030845 218.295731,72.4118611 218.210418,72.4997765 C218.058914,72.6517658 217.929473,72.8484578 217.800033,73.2850544 L217.692656,73.6337357 Z M207.574248,71.7800626 C207.790472,71.8664879 207.962569,71.9767546 207.962569,72.1078826 C207.962569,72.2598719 207.875785,72.3462971 207.790472,72.4342125 C207.638968,72.6085531 207.488935,72.8052451 207.359495,73.2403517 C207.294774,73.4161824 207.252118,73.590523 207.209462,73.7648637 C207.811065,74.7021308 208.543579,75.4650574 209.685008,76.229474 C209.276094,76.6213679 208.952493,77.0803159 208.650956,77.5809864 C208.478859,77.8864551 208.371483,78.0399344 208.242042,78.0399344 C208.134666,78.0399344 208.027289,77.9296677 207.855192,77.7553271 C207.252118,77.1235285 206.75642,76.4902399 206.325443,75.83609 C205.809153,76.8180599 205.185486,77.7329757 204.410315,78.540605 C204.195561,78.7581582 204.06465,78.8892862 203.958744,78.8892862 C203.849897,78.8892862 203.74252,78.7581582 203.527767,78.475041 C203.16151,77.9952317 202.773189,77.6241991 202.406932,77.3202205 C203.914617,76.0551334 204.841292,74.3534496 205.335519,72.8708091 C205.528208,72.2598719 205.637056,71.7577112 205.701776,71.212338 C206.454883,71.3866786 207.015301,71.5610192 207.574248,71.7800626 Z M210.652868,68.573387 C210.652868,67.3082998 210.632275,66.8717032 210.502835,66 C211.278006,66.0223514 212.07377,66.065564 212.826877,66.1519893 C213.043101,66.1743406 213.128414,66.2831173 213.128414,66.3710326 C213.128414,66.5885859 213.043101,66.7852779 213.000445,66.9819699 C212.935725,67.2650872 212.891597,67.6793324 212.891597,68.5510356 L212.891597,68.6821636 L218.511955,68.6821636 C220.449147,68.6821636 221.11547,68.638951 221.246381,68.638951 C221.481727,68.638951 221.503791,68.6613023 221.503791,68.8788556 L221.503791,70.6014007 C221.503791,70.820444 221.481727,70.8413053 221.246381,70.8413053 C221.11547,70.8413053 220.449147,70.7980927 218.511955,70.7980927 L212.891597,70.7980927 L212.891597,75.9895694 C214.937637,79.1724035 217.84416,81.4850246 221.999489,82.9244524 C221.568511,83.361049 221.181661,83.9704962 220.880124,84.5814335 C220.706556,84.9524661 220.621244,85.1059455 220.46974,85.1059455 C220.34177,85.1059455 220.190266,85.0403815 219.953449,84.9092535 C216.832172,83.361049 214.484596,81.4626732 212.826877,79.0427656 C212.871004,82.0959619 212.935725,84.9956787 212.935725,85.7600954 C212.935725,85.9776486 212.913661,86 212.698908,86 L210.826436,86 C210.610212,86 210.588148,85.9776486 210.588148,85.7600954 C210.588148,84.9524661 210.652868,82.1615259 210.674932,79.1947549 C209.05987,81.5505886 206.75642,83.492177 204.06465,84.9316048 C203.80724,85.0612427 203.657207,85.1491581 203.54836,85.1491581 C203.376263,85.1491581 203.29095,84.9956787 203.09679,84.6246461 C202.773189,84.0584116 202.406932,83.5994636 201.999489,83.229921 C205.528208,81.7249292 208.715676,79.1724035 210.652868,76.0104306 L210.652868,70.7980927 L205.400239,70.7980927 C203.440983,70.7980927 202.773189,70.8413053 202.645219,70.8413053 C202.428995,70.8413053 202.428995,70.820444 202.428995,70.6014007 L202.428995,68.8788556 C202.428995,68.6613023 202.428995,68.638951 202.645219,68.638951 C202.773189,68.638951 203.440983,68.6821636 205.400239,68.6821636 L210.652868,68.6821636 L210.652868,68.573387 Z M78.0481955,90.7261131 C78.7294737,90.5352359 79.4337594,90.9182378 79.6293233,91.580694 C79.8248872,92.2419025 79.4324812,92.9343002 78.7550376,93.1239298 C78.2974436,93.2524288 77.8309023,93.314807 77.3681955,93.314807 C76.0631579,93.314807 74.7913534,92.8170292 73.8454887,91.8950799 L64.9262406,83.1883353 C64.8942857,83.1583938 64.8623308,83.1247096 64.8303759,83.0885302 C63.6812782,82.2401871 63,80.9152749 63,79.5130136 L63,64.6582768 C63,62.1856062 65.0604511,60.1732865 67.5951128,60.1732865 C70.1284962,60.1732865 72.1902256,62.1856062 72.1902256,64.6582768 L72.1902256,67.9755478 C72.1902256,68.6642027 71.617594,69.2231111 70.9120301,69.2231111 C70.2064662,69.2231111 69.6338346,68.6642027 69.6338346,67.9755478 L69.6338346,64.6582768 C69.6338346,63.5616686 68.7186466,62.6684133 67.5951128,62.6684133 C66.4703008,62.6684133 65.556391,63.5616686 65.556391,64.6582768 L65.556391,79.5130136 C65.556391,80.1555088 65.8823308,80.7643197 66.4319549,81.1410838 C66.5073684,81.1934815 66.5776692,81.2533645 66.6403008,81.3207329 L65.8030827,82.2788616 L66.733609,81.4242807 L75.6541353,90.1297778 C76.2766165,90.7373411 77.1930827,90.9643977 78.0481955,90.7261131 Z M98.4989357,60 C100.980186,60 102.999489,61.9814311 102.999489,64.4173753 L102.999489,79.0428677 C102.999489,80.4223761 102.333482,81.7269514 101.206779,82.5635011 C101.172978,82.6003535 101.142932,82.6310638 101.112887,82.6617741 L92.3759301,91.2336443 C91.4570411,92.1352999 90.2326903,92.6315789 88.9269666,92.6315789 C87.619991,92.6315789 86.3956402,92.1352999 85.4767512,91.2336443 L71.8749407,77.8869305 C71.5619676,77.6228215 70.4728212,76.5872689 70.3751736,74.92154 C70.2900449,73.4916666 70.9535479,72.0728489 72.3456522,70.706853 C72.8351421,70.2265432 73.6263381,70.2265432 74.115828,70.706853 C74.6053179,71.1859343 74.6053179,71.9635201 74.115828,72.4438298 C73.5211791,73.0273263 72.8226232,73.9068704 72.8739508,74.7790441 C72.917767,75.5222343 73.4923856,76.0135997 73.4986451,76.017285 L73.6063078,76.1118728 L87.246927,89.4966674 C88.1382744,90.3725263 89.713155,90.3712979 90.6057543,89.4966674 L99.6381577,80.6459474 C100.17522,80.2749665 100.495704,79.6755007 100.495704,79.0428677 L100.495704,64.4173753 C100.495704,63.3363713 99.599349,62.4568272 98.4989357,62.4568272 C97.3985223,62.4568272 96.5021673,63.3363713 96.5021673,64.4173753 L96.5021673,66.8545479 C96.5021673,67.5326322 95.9413195,68.0829615 95.250275,68.0829615 C94.5592304,68.0829615 93.9983826,67.5326322 93.9983826,66.8545479 L93.9983826,64.4173753 C93.9983826,61.9814311 96.017685,60 98.4989357,60 Z M78.7580253,67.8603849 C77.9691518,68.6492302 77.9691518,69.9326889 78.7580253,70.7215342 C79.5468988,71.5103794 80.8304036,71.5103794 81.6192771,70.7215342 L85.2998414,67.041102 C86.0887149,66.2522567 86.0887149,64.9687979 85.2998414,64.1799527 C84.9054046,63.7855301 84.3866759,63.5889529 83.8692154,63.5889529 C83.351755,63.5889529 82.8330263,63.7855301 82.4385895,64.1799527 L78.7580253,67.8603849 Z M88.5238228,68.2433934 C88.0063624,68.2433934 87.4876337,68.4412388 87.0931969,68.8356614 L83.4126327,72.5148254 C82.6250275,73.3036706 82.6250275,74.5883977 83.4126327,75.3772429 C84.2015062,76.1660881 85.485011,76.1660881 86.2738845,75.3772429 L89.9544487,71.6955424 C90.3336661,71.3163387 90.5429332,70.8077745 90.5429332,70.2649678 C90.5429332,69.7234294 90.3336661,69.2148652 89.9544487,68.8356614 C89.560012,68.4412388 89.0412833,68.2433934 88.5238228,68.2433934 Z M93.1796985,72.8978339 C92.6609698,72.8978339 92.1435093,73.094411 91.7503409,73.4875654 L91.7478043,73.4901019 L88.0672401,77.1705341 C87.2783666,77.9593793 87.2783666,79.2428381 88.0672401,80.0316834 C88.8561136,80.8205286 90.1396184,80.8205286 90.9297602,80.0316834 L94.6103244,76.3512511 C95.3991979,75.5624059 95.3991979,74.2789471 94.6103244,73.4888337 C94.2158877,73.094411 93.6971589,72.8978339 93.1796985,72.8978339 Z M80.1886512,73.8490138 C79.0218287,73.8490138 77.8537378,73.4051298 76.9646698,72.5148254 C75.1865336,70.7380213 75.1865336,67.8451661 76.9646698,66.0670937 L80.645234,62.3866615 C82.4221018,60.6073209 85.3163291,60.6085891 87.0931969,62.3866615 C88.0101672,63.3035989 88.4451891,64.5160363 88.4172868,65.719596 C89.6196214,65.6916947 90.8321022,66.1254327 91.7478043,67.041102 C92.6064335,67.8997004 93.0795039,69.044921 93.0795039,70.2649678 C93.0795039,70.3017468 93.0706259,70.3372575 93.0693577,70.3727682 C94.2742288,70.3435987 95.4867096,70.7798732 96.40368,71.6955424 C98.1805478,73.4736148 98.1805478,76.36647 96.40368,78.1445424 L92.7231157,81.8249746 C91.8340477,82.7140108 90.6659568,83.1578947 89.4991343,83.1578947 C88.3310434,83.1578947 87.1629526,82.7140108 86.2738845,81.8249746 C85.3581825,80.9080371 84.9231606,79.696868 84.9510629,78.4933083 C84.9142826,78.4945766 84.8800389,78.5034543 84.8432586,78.5034543 C83.676436,78.5034543 82.5083452,78.0595703 81.6192771,77.1705341 C80.7035751,76.2535967 80.2685532,75.0424275 80.2964555,73.8375996 C80.2609435,73.8388679 80.2254315,73.8490138 80.1886512,73.8490138 Z" id="Combined-Shape" fill="#7484FF"></path>
            </g>
        </g>
    </g>
</svg>