<?xml version="1.0" encoding="UTF-8"?>
<svg width="41px" height="59px" viewBox="0 0 41 59" version="1.1" xmlns="http://www.w3.org/2000/svg" xmlns:xlink="http://www.w3.org/1999/xlink">
    <!-- Generator: Sketch 51.3 (57544) - http://www.bohemiancoding.com/sketch -->
    <title>Group 14</title>
    <desc>Created with Sketch.</desc>
    <defs></defs>
    <g id="county" stroke="none" stroke-width="1" fill="none" fill-rule="evenodd">
        <g id="County" transform="translate(-168.000000, -1947.000000)">
            <g id="Group-21" transform="translate(135.000000, 1709.000000)">
                <g id="Group-14" transform="translate(32.000000, 238.000000)">
                    <path d="M16.4948095,2 C15.7743451,2.84099599 1.01197342,20.1048655 2.05250254,23.9508286 C2.52686059,25.7041323 5.99242357,25.026278 11.409815,25.0470461 C15.6332775,25.0632371 25.7964707,29.603669 24.8535744,31.4323806 C20.3104879,40.2435246 8.51805875,45.0518403 5.99242357,54.6025526 C4.95258267,58.5347204 14.2932333,60.9658918 14.1883819,56.9061981 C15.8389855,54.020066 16.8533614,52.1572906 17.2315096,51.3178719 C19.635044,45.9824717 22.4917599,40.8486806 25.3474213,35.729871 C25.9588801,34.6338233 26.3343704,32.7214433 27.6131472,32.7086532 C29.2399231,32.6923824 32.0503806,34.7740524 32.9342153,35.729871 C36.4695542,36.4990026 44.4240667,30.4616771 41.2794091,23.9508286 C33.5350895,21.8434748 30.7866494,16.4628136 24.8535744,12.1678145 C23.4217968,11.1313395 20.6355419,7.74206802 16.4948095,2 Z" id="Path-21" fill="#FFDBDB"></path>
                    <path d="M14.8977054,1 C12.8416046,2.89651802 10.4339805,4.36059214 8.72940278,6.68955405 C6.23815041,10.0933484 4.15971991,13.9467709 2.47309871,17.9757214 C-5.73364968,37.5797576 23.3759303,3.2520521 15.6964302,1.06225279 L14.8977054,1 Z" id="Path-22" fill="#FFA9A9" transform="translate(9.000000, 12.500000) rotate(-2.000000) translate(-9.000000, -12.500000) "></path>
                    <path d="M26.9932519,14 C26.9932519,18.4444444 25.9395307,19.9241289 23.3959511,22.8888889 C21.108117,25.5555556 19.7986504,26.4444444 18,27.3333333 C20.2087918,28.2222222 20.6979756,29.1111111 22.4966259,30 C27.4437927,27.3333333 30.5905526,23.7777778 31,17.5555556 C29.5279348,16.3703704 28.1923521,15.1851852 26.9932519,14 Z" id="Path-23" fill="#FFA9A9"></path>
                </g>
            </g>
        </g>
    </g>
</svg>