<?xml version="1.0" encoding="UTF-8"?>
<svg width="43px" height="47px" viewBox="0 0 43 47" version="1.1" xmlns="http://www.w3.org/2000/svg" xmlns:xlink="http://www.w3.org/1999/xlink">
    <!-- Generator: Sketch 51.3 (57544) - http://www.bohemiancoding.com/sketch -->
    <title>Group 12</title>
    <desc>Created with Sketch.</desc>
    <defs></defs>
    <g id="county" stroke="none" stroke-width="1" fill="none" fill-rule="evenodd">
        <g id="County" transform="translate(-963.000000, -1957.000000)">
            <g id="Group-21" transform="translate(135.000000, 1709.000000)">
                <g id="Group-12" transform="translate(828.000000, 248.000000)">
                    <path d="M32.7909008,22.9455496 C31.6993796,35.3634643 20,50 13,39 C11.0528439,35.9401832 13.2647105,23.0707365 13,21.6584403 C12.8375412,20.7916826 8.02417076,20.7747186 7.86902575,21.6428153 C7.00643606,26.4693398 6.43924149,31.6679033 7.888557,36.3517996 C14.5954592,58.027159 38,42 38,21.6584403 L32.7909008,22.9455496 Z" id="Path-32" fill="#FFA9A9"></path>
                    <path d="M35.4068282,24.6257146 C23.99069,26.5087128 12.4798718,24.9696529 0.872886984,23.1636218 C0.473974174,23.1015515 -0.26575683,22.4092769 0.0975347748,22.2331992 C1.64442396,21.4834634 4.60808584,19.858739 5.08686471,18.3170552 C6.76088272,12.9266617 6.76088272,12.9266617 7.96674434,8.94390845 C8.36689145,7.62229147 8.90175799,6.22552978 9.91620132,5.2886766 C20.2131521,-4.22070711 38.9359434,-0.398147193 42.1856218,12.6869217 C42.8432163,15.334774 43.6304929,20.8173959 42.1856218,23.1906976 C41.4636007,24.3766678 39.2040029,24.8550068 35.4068282,24.6257146 Z" id="Path-31" fill="#FFDBDB"></path>
                </g>
            </g>
        </g>
    </g>
</svg>