<?xml version="1.0" encoding="UTF-8"?>
<svg width="53px" height="53px" viewBox="0 0 53 53" version="1.1" xmlns="http://www.w3.org/2000/svg" xmlns:xlink="http://www.w3.org/1999/xlink">
    <!-- Generator: Sketch 51.3 (57544) - http://www.bohemiancoding.com/sketch -->
    <title>Group 5</title>
    <desc>Created with Sketch.</desc>
    <defs></defs>
    <g id="county" stroke="none" stroke-width="1" fill="none" fill-rule="evenodd">
        <g id="County" transform="translate(-560.000000, -1758.000000)">
            <g id="Group-21" transform="translate(135.000000, 1709.000000)">
                <g id="Group-5" transform="translate(425.000000, 49.000000)">
                    <path d="M26.7268413,0 C21.0625002,6.34028839 21.0625002,9.73756047 13.3787672,21.7144206 C6.89474404,31.8212578 -0.179866839,36.5547357 0.00349006988,39.8323902 C0.180300493,42.9930209 4.61255938,44.3261509 7.42927485,45.7970701 C12.0881673,48.229994 18.6027389,53.329785 23.8526014,52.9831862 C27.5361874,52.7399938 33.0824358,42.8440694 35.1992551,39.8323902 C44.8002698,26.1726625 49.1643674,19.1086901 53,9.73756047 C47.234618,7.31504542 32.5807966,1.73715364 26.7268413,0 Z" id="Path-7" fill="#FFDBDB"></path>
                    <path d="M27.0666667,3 C24.4587674,9.35586167 20.7183215,15.2630549 17.5333333,21.3458321 C15.4559597,25.3132569 11.302474,30.2082068 8,33.5763869 C10.2016493,35.9901924 16.0386719,39.4647301 25.5110677,44 C33.1333333,33.5763869 38.3333333,25.7138874 47,10.8624995 C44.6888889,9.02768876 38.0444444,6.40685561 27.0666667,3 Z" id="Path-8" fill="#FFA9A9"></path>
                    <path d="M11.6211337,40.0292513 C11.1558168,40.0955806 10.6984382,40.2657041 10.284841,40.5012712 C5.66206191,43.1342067 15,46.2625665 15,41.6178352 C15,40.7980449 14.2267384,40.3061707 13.3114353,40.0698405 C12.7480014,40.0563108 12.1796858,39.9496316 11.6211337,40.0292513 Z" id="Path-10" fill="#FFA9A9"></path>
                </g>
            </g>
        </g>
    </g>
</svg>