<?xml version="1.0" encoding="UTF-8"?>
<svg width="47px" height="39px" viewBox="0 0 47 39" version="1.1" xmlns="http://www.w3.org/2000/svg" xmlns:xlink="http://www.w3.org/1999/xlink">
    <!-- Generator: Sketch 51.3 (57544) - http://www.bohemiancoding.com/sketch -->
    <title>Group 4</title>
    <desc>Created with Sketch.</desc>
    <defs></defs>
    <g id="county" stroke="none" stroke-width="1" fill="none" fill-rule="evenodd">
        <g id="County" transform="translate(-166.000000, -1766.000000)">
            <g id="Group-21" transform="translate(135.000000, 1709.000000)">
                <g id="Group-4" transform="translate(31.000000, 57.000000)">
                    <path d="M22.7363889,4.32219509 C23.4225962,8.01626688 23.5,12.4875068 23.4225962,24.4007201 C23.4040306,27.2581474 14.3168359,13.2036447 8.93860075,5.91017495 C8.29449946,5.0367038 6.48786193,6.67279496 5.32011239,7.1987264 C4.91421681,7.3815338 4.53937906,7.66652292 4.26234891,8.01626688 C3.132877,9.44219826 2.06660851,10.9262525 1.13090039,12.4875068 C0.701696714,13.2036447 0.340276536,13.9882726 0.190294258,14.8106002 C-0.0254430588,15.9934515 -0.0351455984,17.2159826 0.0497054415,18.4155163 C0.119415889,19.4010084 0.347402962,20.377458 0.650555265,21.3172804 C1.27446849,23.2515146 1.99144871,25.1595053 2.82298722,27.0131488 C3.37234314,28.2377584 3.91516358,29.5071643 4.78286227,30.5289093 C6.04357272,32.0134391 7.46803232,33.4144428 9.12437883,34.4332538 C11.5906771,35.9502624 14.3168359,37.0104813 17.015763,38.0533096 C18.0903505,38.4685154 19.2443875,38.6894433 20.3915683,38.786741 C22.1755059,38.9380449 24.01253,39.1753134 25.7623958,38.7951519 C30.0644203,37.8605291 34.2079925,36.2927432 38.3785684,34.8790321 C39.992708,34.3318829 41.5901317,33.7071002 43.1016832,32.9176078 C43.8070202,32.5492061 44.5974386,32.1372331 44.9745271,31.4339232 C52.5746543,17.2588841 37.2251952,5.42495848 24.7883162,3 L22.7363889,4.32219509 Z" id="Path-2" fill="#FFDBDB"></path>
                    <path d="M21.841602,0.652226367 C19.2988064,0.370962404 11.3830258,-0.759905232 10.0889473,0.832506804 C8.84329593,2.36532732 21.091651,17.4691068 21.1660103,15.8835512 C21.436007,10.1264378 21.8120023,2.42023978 22,1.45399989 L21.841602,0.652226367 Z" id="Path-6" fill="#FFA9A9"></path>
                </g>
            </g>
        </g>
    </g>
</svg>