<?xml version="1.0" encoding="UTF-8"?>
<svg width="47px" height="39px" viewBox="0 0 47 39" version="1.1" xmlns="http://www.w3.org/2000/svg" xmlns:xlink="http://www.w3.org/1999/xlink">
    <!-- Generator: Sketch 51.3 (57544) - http://www.bohemiancoding.com/sketch -->
    <title>Group 7</title>
    <desc>Created with Sketch.</desc>
    <defs></defs>
    <g id="county" stroke="none" stroke-width="1" fill="none" fill-rule="evenodd">
        <g id="County" transform="translate(-962.000000, -1770.000000)">
            <g id="Group-21" transform="translate(135.000000, 1709.000000)">
                <g id="Group-7" transform="translate(827.000000, 61.000000)">
                    <path d="M1.3374262,27.061337 C0.835483953,23.0170805 0.835483953,13.5896725 9.09494702e-13,8.09623324 C6.85633846,5.51229178 12.7343399,2.25869578 26.0846999,0 C32.2036149,3.38804366 41.1038549,7.18746112 45.5539749,9.0347831 C46.5575314,17.047974 45.5539749,24.2809796 45.5539749,30.4118828 C31.6473499,36.5426328 26.893855,37.3059782 21.6345799,39 C15.3302433,35.9884056 8.56452536,32.0088513 1.3374262,27.061337 Z" id="Path-19" fill="#FFDBDB"></path>
                    <path d="M47,10.0216096 C41.6144701,9.6245867 30.4071091,14.7947299 20,17.5956852 C20.0203515,22.411656 21.6249058,33.9864991 21.6249058,39 C30.4199627,36.3244607 40.2915063,33.9864991 46.6208196,30.4382741 C46.7886301,27.2276269 46.9150236,20.422072 47,10.0216096 Z" id="Path-20" fill="#FFA9A9"></path>
                </g>
            </g>
        </g>
    </g>
</svg>