<?xml version="1.0" encoding="UTF-8"?>
<svg width="279px" height="169px" viewBox="0 0 279 169" version="1.1" xmlns="http://www.w3.org/2000/svg" xmlns:xlink="http://www.w3.org/1999/xlink">
    <!-- Generator: Sketch 52.1 (67048) - http://www.bohemiancoding.com/sketch -->
    <title>Group 8</title>
    <desc>Created with Sketch.</desc>
    <g id="SSA" stroke="none" stroke-width="1" fill="none" fill-rule="evenodd">
        <g id="SSA-PDF-1" transform="translate(-953.000000, -448.000000)">
            <g id="Group-2" transform="translate(142.000000, 443.000000)">
                <g id="Group-5" transform="translate(41.000000, 0.000000)">
                    <g id="Group-8" transform="translate(770.000000, 0.000000)">
                        <text id="高-copy-2" font-family="NotoSansCJKsc-Black, Noto Sans CJK SC" font-size="18" font-weight="700" fill="#000000">
                            <tspan x="0" y="96">高</tspan>
                        </text>
                        <text id="中-copy-2" font-family="NotoSansCJKsc-Black, Noto Sans CJK SC" font-size="18" font-weight="700" fill="#000000">
                            <tspan x="131" y="21">中</tspan>
                        </text>
                        <text id="低-copy-2" font-family="NotoSansCJKsc-Black, Noto Sans CJK SC" font-size="18" font-weight="700" fill="#000000">
                            <tspan x="261" y="96">低</tspan>
                        </text>
                        <path d="M258,155 C258,90.934969 205.393458,39 140.5,39 C75.6065419,39 23,90.934969 23,155" id="Oval-7-Copy-2" stroke="#CCCCCC" stroke-width="14" stroke-linecap="round"></path>
                        <path d="M258,155 C258,118.014366 240.466694,85.071576 213.158131,63.8306427" id="Oval-7-Copy-2" stroke="#66CDB6" stroke-width="14" stroke-linecap="round"></path>
                        <path d="M142.5,155.5 L48.5,27.5" id="Line-2" stroke="#FFFFFF" stroke-width="4" stroke-linecap="square"></path>
                        <path d="M233.5,155.5 L139.5,27.5" id="Line-2-Copy" stroke="#FFFFFF" stroke-width="4" stroke-linecap="square" transform="translate(186.500000, 91.500000) scale(-1, 1) translate(-186.500000, -91.500000) "></path>
                        <path d="M198,156 C198,123.967485 172.256373,98 140.5,98 C108.743627,98 83,123.967485 83,156" id="Oval-8-Copy" fill="#D8D8D8" opacity="0.401618304"></path>
                        <path d="M205,156 L141,117" id="Line-6-Copy-2" stroke="#66CDB6" stroke-width="20" stroke-linecap="round" transform="translate(173.000000, 136.500000) scale(-1, 1) translate(-173.000000, -136.500000) "></path>
                        <circle id="Oval-9-Copy-2" fill="#66CDB6" cx="140" cy="157" r="17"></circle>
                    </g>
                </g>
            </g>
        </g>
    </g>
</svg>